<?xml version="1.0" encoding="utf-8"?>
<!-- Generator: Adobe Illustrator 26.0.3, SVG Export Plug-In . SVG Version: 6.00 Build 0)  -->
<svg version="1.0" id="Layer_1" xmlns="http://www.w3.org/2000/svg" xmlns:xlink="http://www.w3.org/1999/xlink" x="0px" y="0px"
	 viewBox="0 0 660.5 481.2" style="enable-background:new 0 0 660.5 481.2;" xml:space="preserve">
<style type="text/css">
	.st0{fill:#0B0E1F;}
</style>
<path class="st0" d="M140.6,309.8c-8,1.4-16.2,1.8-24.7,3L90,237.1V316l-23,3.1V174.5h21.5l29.4,82v-82h22.7V309.8z M185,227.5
	l30.2-0.4v22.6L185,250v33.6l40-2.4V303l-62.6,4.9V174.5H225v22.6h-40L185,227.5L185,227.5z M309,197.1h-23.4V301l-22.6,0.3V197.1
	h-23.4v-22.6H309V197.1L309,197.1L309,197.1z M345.7,225.9h30.9v22.6h-30.9v51.3h-22.2V174.5h63.1v22.6h-40.9L345.7,225.9
	L345.7,225.9z M423.4,280l38.4,2v22.3l-61-3V174.5h22.6L423.4,280L423.4,280z M480.8,305.8l22.2,1.7v-133h-22.2V305.8z M602,174.5
	l-28.7,68.8l28.7,75.8l-25.4-4.1l-16.2-41.8l-16.5,38.4l-24.3-3l29.1-66.2l-26.3-67.9h24.3l14.8,38l15.8-38H602z"/>
</svg>
